<svg width="348" height="348" viewBox="0 0 348 348" fill="none" xmlns="http://www.w3.org/2000/svg">
<g filter="url(#filter0_d_755_550)">
<rect x="40.9167" y="36.5" width="267" height="267" rx="30" fill="white"/>
</g>
<path d="M117.825 265.3C139.229 265.3 155.156 248.984 155.156 225.346C155.156 201.709 139.231 185.399 117.826 185.399H117.818C96.4182 185.403 80.4965 201.715 80.4965 225.348C80.4965 248.984 96.4176 265.296 117.818 265.3H117.825Z" fill="url(#paint0_linear_755_550)"/>
<path d="M117.818 283.815H175.039L175.039 225.353C175.039 260.352 149.42 283.815 117.818 283.815Z" fill="url(#paint1_linear_755_550)"/>
<path d="M175.039 225.353L175.039 190.524H164.618C171.183 199.933 175.039 211.775 175.039 225.353Z" fill="url(#paint2_linear_755_550)"/>
<path d="M155.136 166.89H117.818C132.077 166.89 145.117 171.667 155.136 180.125V166.89Z" fill="url(#paint3_linear_755_550)"/>
<path d="M155.136 56.1846V146.988H175.039V56.1846H155.136Z" fill="url(#paint4_linear_755_550)"/>
<path d="M89.25 56.1846V146.988H135.234V56.1846H89.25Z" fill="url(#paint5_linear_755_550)"/>
<path d="M194.941 283.815H259.662L225.455 235.304H194.941V283.815Z" fill="url(#paint6_linear_755_550)"/>
<path d="M259.662 56.1846L194.94 56.1846L227.301 123.976L259.662 56.1846Z" fill="url(#paint7_linear_755_550)"/>
<path d="M117.818 283.815C86.2402 283.815 60.6373 260.311 60.6013 225.353L60.6014 254.621V268.815C60.6014 277.099 67.3171 283.815 75.6014 283.815H90.4938H117.818Z" fill="url(#paint8_linear_755_550)"/>
<path d="M239.72 225.353L279.564 283.815H288.232V166.89H279.564L239.72 225.353Z" fill="url(#paint9_linear_755_550)"/>
<path d="M288.232 166.89V56.1846L279.564 56.1846V166.89H288.232Z" fill="url(#paint10_linear_755_550)"/>
<path d="M194.941 166.89V215.402H225.455L259.663 166.89L259.662 94.7449L233.186 153.207H221.417L194.94 94.7449L194.941 166.89Z" fill="url(#paint11_linear_755_550)"/>
<path d="M60.6014 56.1846V166.89L60.6013 225.353C60.6035 223.191 60.7036 220.999 60.8967 218.928C63.8268 187.512 88.193 166.89 117.818 166.89H69.3478V56.1846H60.6014Z" fill="url(#paint12_linear_755_550)"/>
<defs>
<filter id="filter0_d_755_550" x="0.916748" y="0.5" width="347" height="347" filterUnits="userSpaceOnUse" color-interpolation-filters="sRGB">
<feFlood flood-opacity="0" result="BackgroundImageFix"/>
<feColorMatrix in="SourceAlpha" type="matrix" values="0 0 0 0 0 0 0 0 0 0 0 0 0 0 0 0 0 0 127 0" result="hardAlpha"/>
<feOffset dy="4"/>
<feGaussianBlur stdDeviation="20"/>
<feComposite in2="hardAlpha" operator="out"/>
<feColorMatrix type="matrix" values="0 0 0 0 0 0 0 0 0 0.199248 0 0 0 0 0.5 0 0 0 0.25 0"/>
<feBlend mode="normal" in2="BackgroundImageFix" result="effect1_dropShadow_755_550"/>
<feBlend mode="normal" in="SourceGraphic" in2="effect1_dropShadow_755_550" result="shape"/>
</filter>
<linearGradient id="paint0_linear_755_550" x1="288.232" y1="283.815" x2="60.6013" y2="56.1846" gradientUnits="userSpaceOnUse">
<stop stop-color="#659BEA"/>
<stop offset="1" stop-color="#9BD4FF"/>
</linearGradient>
<linearGradient id="paint1_linear_755_550" x1="288.232" y1="283.815" x2="60.6013" y2="56.1846" gradientUnits="userSpaceOnUse">
<stop stop-color="#659BEA"/>
<stop offset="1" stop-color="#9BD4FF"/>
</linearGradient>
<linearGradient id="paint2_linear_755_550" x1="288.232" y1="283.815" x2="60.6013" y2="56.1846" gradientUnits="userSpaceOnUse">
<stop stop-color="#659BEA"/>
<stop offset="1" stop-color="#9BD4FF"/>
</linearGradient>
<linearGradient id="paint3_linear_755_550" x1="288.232" y1="283.815" x2="60.6013" y2="56.1846" gradientUnits="userSpaceOnUse">
<stop stop-color="#659BEA"/>
<stop offset="1" stop-color="#9BD4FF"/>
</linearGradient>
<linearGradient id="paint4_linear_755_550" x1="288.232" y1="283.815" x2="60.6013" y2="56.1846" gradientUnits="userSpaceOnUse">
<stop stop-color="#659BEA"/>
<stop offset="1" stop-color="#9BD4FF"/>
</linearGradient>
<linearGradient id="paint5_linear_755_550" x1="288.232" y1="283.815" x2="60.6013" y2="56.1846" gradientUnits="userSpaceOnUse">
<stop stop-color="#659BEA"/>
<stop offset="1" stop-color="#9BD4FF"/>
</linearGradient>
<linearGradient id="paint6_linear_755_550" x1="288.232" y1="283.815" x2="60.6013" y2="56.1846" gradientUnits="userSpaceOnUse">
<stop stop-color="#659BEA"/>
<stop offset="1" stop-color="#9BD4FF"/>
</linearGradient>
<linearGradient id="paint7_linear_755_550" x1="288.232" y1="283.815" x2="60.6013" y2="56.1846" gradientUnits="userSpaceOnUse">
<stop stop-color="#659BEA"/>
<stop offset="1" stop-color="#9BD4FF"/>
</linearGradient>
<linearGradient id="paint8_linear_755_550" x1="288.232" y1="283.815" x2="60.6013" y2="56.1846" gradientUnits="userSpaceOnUse">
<stop stop-color="#659BEA"/>
<stop offset="1" stop-color="#9BD4FF"/>
</linearGradient>
<linearGradient id="paint9_linear_755_550" x1="288.232" y1="283.815" x2="60.6013" y2="56.1846" gradientUnits="userSpaceOnUse">
<stop stop-color="#659BEA"/>
<stop offset="1" stop-color="#9BD4FF"/>
</linearGradient>
<linearGradient id="paint10_linear_755_550" x1="288.232" y1="283.815" x2="60.6013" y2="56.1846" gradientUnits="userSpaceOnUse">
<stop stop-color="#659BEA"/>
<stop offset="1" stop-color="#9BD4FF"/>
</linearGradient>
<linearGradient id="paint11_linear_755_550" x1="288.232" y1="283.815" x2="60.6013" y2="56.1846" gradientUnits="userSpaceOnUse">
<stop stop-color="#659BEA"/>
<stop offset="1" stop-color="#9BD4FF"/>
</linearGradient>
<linearGradient id="paint12_linear_755_550" x1="288.232" y1="283.815" x2="60.6013" y2="56.1846" gradientUnits="userSpaceOnUse">
<stop stop-color="#659BEA"/>
<stop offset="1" stop-color="#9BD4FF"/>
</linearGradient>
</defs>
</svg>
