<svg width="81" height="29" viewBox="0 0 81 29" fill="#659BEA" xmlns="http://www.w3.org/2000/svg">
<path d="M19.636 20.4V26.736H16.756V23.04H2.5V6.24H5.572V20.4H14.044V6.24H17.14V20.4H19.636Z" />
<path d="M37.9236 23.04L37.8996 11.904L32.3796 21.12H30.9876L25.4676 12.048V23.04H22.5156V6.24H25.0836L31.7316 17.352L38.3076 6.24H40.8516L40.8996 23.04H37.9236Z" />
<path d="M53.377 23.28C51.665 23.28 50.121 22.912 48.745 22.176C47.369 21.424 46.289 20.392 45.505 19.08C44.721 17.752 44.329 16.272 44.329 14.64C44.329 13.008 44.721 11.536 45.505 10.224C46.289 8.896 47.369 7.864 48.745 7.128C50.121 6.376 51.665 6 53.377 6C55.089 6 56.633 6.376 58.009 7.128C59.385 7.864 60.465 8.888 61.249 10.2C62.033 11.512 62.425 12.992 62.425 14.64C62.425 16.288 62.033 17.768 61.249 19.08C60.465 20.392 59.385 21.424 58.009 22.176C56.633 22.912 55.089 23.28 53.377 23.28ZM53.377 20.544C54.497 20.544 55.505 20.296 56.401 19.8C57.297 19.288 58.001 18.584 58.513 17.688C59.025 16.776 59.281 15.76 59.281 14.64C59.281 13.52 59.025 12.512 58.513 11.616C58.001 10.704 57.297 10 56.401 9.504C55.505 8.992 54.497 8.736 53.377 8.736C52.257 8.736 51.249 8.992 50.353 9.504C49.457 10 48.753 10.704 48.241 11.616C47.729 12.512 47.473 13.52 47.473 14.64C47.473 15.76 47.729 16.776 48.241 17.688C48.753 18.584 49.457 19.288 50.353 19.8C51.249 20.296 52.257 20.544 53.377 20.544Z" />
<path d="M72.0664 15.96H68.9464V23.04H65.8744V6.24H68.9464V13.272H72.1624L76.9864 6.24H80.2984L74.5624 14.376L80.5144 23.04H76.9864L72.0664 15.96Z" />
</svg>
